<?xml version="1.0" encoding="UTF-8" standalone="no"?>
<svg
   xmlns:ns="http://purl.org/dc/elements/2.1/"
   xmlns:dc="http://purl.org/dc/elements/1.1/"
   xmlns:cc="http://creativecommons.org/ns#"
   xmlns:rdf="http://www.w3.org/1999/02/22-rdf-syntax-ns#"
   xmlns:svg="http://www.w3.org/2000/svg"
   xmlns="http://www.w3.org/2000/svg"
   xmlns:sodipodi="http://sodipodi.sourceforge.net/DTD/sodipodi-0.dtd"
   xmlns:inkscape="http://www.inkscape.org/namespaces/inkscape"
   viewBox="0 0 153.6333 400"
   id="svg2"
   version="1.1"
   inkscape:version="0.91 r13725"
   sodipodi:docname="thermometer.svg"
   width="153.6333"
   height="400">
  <metadata
     id="metadata49">
    <rdf:RDF>
      <cc:Work
         rdf:about="">
        <ns:format>image/svg+xml</ns:format>
        <ns:type
           rdf:resource="http://purl.org/dc/dcmitype/StillImage" />
        <ns:title />
        <dc:format>image/svg+xml</dc:format>
        <dc:type
           rdf:resource="http://purl.org/dc/dcmitype/StillImage" />
        <dc:title></dc:title>
      </cc:Work>
    </rdf:RDF>
  </metadata>
  <sodipodi:namedview
     pagecolor="#ffffff"
     bordercolor="#666666"
     borderopacity="1"
     objecttolerance="10"
     gridtolerance="10"
     guidetolerance="10"
     inkscape:pageopacity="0"
     inkscape:pageshadow="2"
     inkscape:window-width="1920"
     inkscape:window-height="1138"
     id="namedview47"
     showgrid="false"
     inkscape:zoom="1"
     inkscape:cx="-249.61377"
     inkscape:cy="116.76477"
     inkscape:window-x="1363"
     inkscape:window-y="0"
     inkscape:window-maximized="1"
     inkscape:current-layer="g9596"
     fit-margin-top="0"
     fit-margin-left="10"
     fit-margin-right="10"
     fit-margin-bottom="0"
     showguides="true"
     inkscape:guide-bbox="true">
    <sodipodi:guide
       position="119.50105,140.3607"
       orientation="1,0"
       id="guide9064" />
  </sodipodi:namedview>
  <defs
     id="defs4">
    <linearGradient
       gradientUnits="userSpaceOnUse"
       id="linearGradient12536-1"
       x1="1386.9824"
       x2="1480.7324"
       gradientTransform="translate(-1365.4517,-538.22948)">
      <stop
         offset="0"
         stop-color="#d0d0d0"
         id="stop7" />
      <stop
         offset="1"
         stop-color="#f2f2f2"
         id="stop9" />
    </linearGradient>
    <linearGradient
       gradientUnits="userSpaceOnUse"
       id="linearGradient12538-9"
       x1="1459.4561"
       x2="1408.631"
       y1="692.73529"
       y2="691.85901"
       gradientTransform="matrix(1,0,0,1.5074681,-1375.2668,-934.64034)">
      <stop
         offset="0"
         stop-color="#a00"
         id="stop12" />
      <stop
         offset="1"
         stop-color="#f55"
         id="stop14" />
    </linearGradient>
    <linearGradient
       gradientUnits="userSpaceOnUse"
       id="linearGradient12542-1"
       x1="1414.7299"
       x2="1430.5032"
       gradientTransform="translate(-1365.4517,-538.22948)">
      <stop
         offset="0"
         stop-color="#fff"
         id="stop17" />
      <stop
         offset="1"
         stop-color="#fff"
         stop-opacity="0"
         id="stop19" />
    </linearGradient>
    <radialGradient
       cx="1179.8818"
       cy="806.77441"
       gradientUnits="userSpaceOnUse"
       id="radialGradient12540-2"
       r="39.87141"
       gradientTransform="matrix(1.175824,0,0,1.175824,-1339.5104,-671.80886)">
      <stop
         offset="0"
         stop-color="#ff2a2a"
         id="stop22" />
      <stop
         offset="1"
         stop-color="#a00"
         id="stop24" />
    </radialGradient>
    <radialGradient
       cx="1070.1079"
       cy="1008.3682"
       gradientTransform="matrix(1,0,0,0.2,-1001.2427,151.69172)"
       gradientUnits="userSpaceOnUse"
       id="radialGradient3105"
       r="58.865231">
      <stop
         offset="0"
         id="stop27" />
      <stop
         offset="1"
         stop-opacity="0"
         id="stop29" />
    </radialGradient>
    <clipPath
       id="clipPath8146"
       clipPathUnits="userSpaceOnUse">
      <path
         inkscape:connector-curvature="0"
         id="path8148"
         d="m 477.791,491.72 26.117,0 0,-333.852 -26.117,0 0,333.852 z" />
    </clipPath>
    <clipPath
       id="clipPath8202"
       clipPathUnits="userSpaceOnUse">
      <path
         inkscape:connector-curvature="0"
         id="path8204"
         d="m 544.328,491.944 26.117,0 0,-333.85 -26.117,0 0,333.85 z" />
    </clipPath>
    <linearGradient
       id="linearGradient8116"
       spreadMethod="pad"
       gradientTransform="matrix(141.16602,0,0,-141.16602,452.69922,298.47266)"
       gradientUnits="userSpaceOnUse"
       y2="0"
       x2="1"
       y1="0"
       x1="0">
      <stop
         id="stop8118"
         offset="0"
         style="stop-opacity:1;stop-color:#d7d7d7" />
      <stop
         id="stop8120"
         offset="0.00782551"
         style="stop-opacity:1;stop-color:#d7d7d7" />
      <stop
         id="stop8122"
         offset="0.123656"
         style="stop-opacity:1;stop-color:#ffffff" />
      <stop
         id="stop8124"
         offset="0.7240931"
         style="stop-opacity:1;stop-color:#bab9b9" />
      <stop
         id="stop8126"
         offset="0.747312"
         style="stop-opacity:1;stop-color:#bab9b9" />
      <stop
         id="stop8128"
         offset="0.75784571"
         style="stop-opacity:1;stop-color:#bab9b9" />
      <stop
         id="stop8130"
         offset="1"
         style="stop-opacity:1;stop-color:#777475" />
    </linearGradient>
    <linearGradient
       id="linearGradient8090"
       spreadMethod="pad"
       gradientTransform="matrix(147.62012,0,0,-147.62012,449.47168,298.47266)"
       gradientUnits="userSpaceOnUse"
       y2="0"
       x2="1"
       y1="0"
       x1="0">
      <stop
         id="stop8092"
         offset="0"
         style="stop-opacity:1;stop-color:#8b8989" />
      <stop
         id="stop8094"
         offset="0.00117724"
         style="stop-opacity:1;stop-color:#8b8989" />
      <stop
         id="stop8096"
         offset="0.569892"
         style="stop-opacity:1;stop-color:#bab9b9" />
      <stop
         id="stop8098"
         offset="0.58782175"
         style="stop-opacity:1;stop-color:#bab9b9" />
      <stop
         id="stop8100"
         offset="1"
         style="stop-opacity:1;stop-color:#929090" />
    </linearGradient>
    <clipPath
       clipPathUnits="userSpaceOnUse"
       id="clipPath8206">
      <rect
         y="150"
         height="338.98306"
         width="133"
         id="temp_val_rect"
         style="fill:#999999;fill-opacity:1"
         x="10" />
    </clipPath>
  </defs>
  <g
     inkscape:groupmode="layer"
     id="layer1"
     inkscape:label="Layer 1"
     transform="translate(8.8166516,17.861581)">
    <g
       id="g8892"
       transform="matrix(0.83520816,0,0,1,-139.05445,27.229769)">
      <g
         transform="matrix(1.0838713,0,0,-0.81733553,-319.2622,398.86079)"
         id="g8078">
        <g
           id="g8080">
          <g
             id="g8086">
            <g
               id="g8088">
              <path
                 inkscape:connector-curvature="0"
                 id="path8102"
                 style="fill:url(#linearGradient8090);stroke:none"
                 d="m 524.035,543.126 c -68.509,0 -74.335,-67.508 -74.335,-67.508 l 0,0 -0.228,-353.944 c 0,0 4.085,-63.097 70.877,-67.848 l 0,0 c 0,0 76.031,-4.75 76.742,77.348 l 0,0 -0.872,344.444 c -5.172,64.216 -59.05,67.552 -70.181,67.552 l 0,0 c -1.289,0 -2.003,-0.044 -2.003,-0.044" />
            </g>
          </g>
        </g>
      </g>
      <g
         transform="matrix(1.0838713,0,0,-0.81733553,-319.2622,398.86079)"
         id="g8104">
        <g
           id="g8106">
          <g
             id="g8112">
            <g
               id="g8114">
              <path
                 inkscape:connector-curvature="0"
                 id="path8132"
                 style="fill:url(#linearGradient8116);stroke:none"
                 d="m 524.002,540.863 c -65.513,0 -71.084,-66.883 -71.084,-66.883 l 0,0 -0.219,-350.671 c 0,0 3.906,-62.515 67.779,-67.221 l 0,0 c 0,0 72.707,-4.705 73.387,76.632 l 0,0 -0.836,341.26 c -4.946,63.623 -56.467,66.927 -67.111,66.927 l 0,0 c -1.233,0 -1.916,-0.044 -1.916,-0.044" />
            </g>
          </g>
        </g>
      </g>
    </g>
    <path
       style="opacity:0.98500001;fill:url(#linearGradient12536-1)"
       inkscape:connector-curvature="0"
       id="path33"
       d="M 65.062,0 C 53.0746,0 43.437,9.66895 43.437,21.65625 l 0,227.5 c 0,0.052 -4e-4,0.10435 0,0.15625 C 30.2691,257.613 21.5307,272.2843 21.5307,289 c 0,25.89209 20.9829,46.875 46.875,46.875 25.8921,0 46.875,-20.98291 46.875,-46.875 0,-17.08159 -9.1296,-32.02374 -22.7813,-40.21875 l 0,-227.125 C 92.4994,9.66895 82.8618,0 70.8744,0 L 65.062,0 Z" />
    <g
       id="g8117"
       clip-path="url(#clipPath8206)"
       transform="translate(10,0)">
      <path
         inkscape:connector-curvature="0"
         id="path37"
         d="m 34.233247,20.414078 c 0.073,78.85487 -0.1488,157.710002 0.1165,236.564662 1.6344,15.48262 21.356,17.4058 33.1308,13.46642 14.4808,-6.9273 16.2425,-24.55463 15.8592,-38.75398 -0.034,-70.32083 0,-140.645792 -0.013,-210.968622 -3.2366,-20.70557959 -35.7473,-26.6956896 -46.9977,-9.69378 -1.625,2.8233 -2.3578,6.13951 -2.0961,9.3853 z"
         style="opacity:0.98500001;fill:url(#linearGradient12538-9)" />
      <path
         inkscape:connector-curvature="0"
         id="path39"
         d="m 106.09645,289.96027 c 1.1845,29.54057 -30.724503,54.03884 -59.015003,45.42815 -26.7507,-6.61787 -42.8796998,-39.21554 -30.9339,-64.32466 10.5161,-24.94984 44.2435,-36.29875 67.2131,-21.33787 13.7888,8.32179 23.003703,24.0334 22.735803,40.23438 z"
         style="opacity:0.98500001;fill:url(#radialGradient12540-2)" />
    </g>
    <path
       style="opacity:0.98500001;fill:#333333"
       inkscape:connector-curvature="0"
       id="path41"
       d="m 64.7671,0.23927 c -12.5252,0 -22.625,10.13296 -22.625,22.65625 l 0,227.15625 c -13.174,8.53066 -21.9063,23.33229 -21.9063,40.1875 0,26.43236 21.4426,47.875 47.875,47.875 26.4324,0 47.875,-21.44264 47.875,-47.875 0,-17.22085 -9.1262,-32.28423 -22.7813,-40.71875 l 0,-226.625 c 0,-12.52329 -10.0998,-22.65625 -22.625,-22.65625 l -5.8124,0 z m 0,2 5.8124,0 c 11.4497,0 20.6251,9.20494 20.625,20.65625 l 0,227.125 0,0.5625 0.5,0.28125 c 13.3605,8.0202 22.2813,22.64972 22.2813,39.375 0,25.35182 -20.5232,45.875 -45.875,45.875 -25.3518,0 -45.875,-20.52318 -45.875,-45.875 0,-16.36719 8.5504,-30.72028 21.4375,-38.84375 l 0.4688,-0.28125 0,-0.5625 c -4e-4,-0.0416 0,-0.0991 0,-0.15625 l 0,-227.5 c 0,-11.45131 9.1753,-20.65625 20.625,-20.65625 z" />
    <path
       style="opacity:0.98500001;fill:url(#linearGradient12542-1)"
       inkscape:connector-curvature="0"
       id="path43"
       d="m 55.2333,47.40724 a 8.05524,8.05524 0 0 1 8.0553,8.05524 l 0,178.4546 a 8.05524,8.05524 0 0 1 -8.0553,8.05524 8.05524,8.05524 0 0 1 -8.0552,-8.05524 l 0,-178.4546 a 8.05524,8.05524 0 0 1 8.0552,-8.05524" />
    <path
       style="opacity:0.5;fill:url(#radialGradient3105)"
       inkscape:connector-curvature="0"
       id="path45"
       d="m 127.7304,353.36533 c 0,6.5021 -26.3548,11.7731 -58.8652,11.7731 -32.5104,0 -58.8652,-5.271 -58.8652,-11.7731 0,-6.5021 26.3548,-11.77302 58.8652,-11.77302 32.5104,0 58.8652,5.27102 58.8652,11.77302 z" />
    <g
       id="g9155"
       transform="matrix(0.55150616,0,0,-0.71888573,-418.07742,210.94129)" />
    <g
       id="g9596">
      <g
         transform="matrix(0.55150616,0,0,-0.58868615,-238.53118,344.54289)"
         id="g8142"
         style="">
        <g
           id="g8144"
           style="" />
        <g
           id="g8150"
           style="">
          <g
             style="opacity:0.69999701"
             id="g8152"
             clip-path="url(#clipPath8146)">
            <path
               inkscape:connector-curvature="0"
               id="path8154"
               style="fill:#636568;fill-opacity:1;fill-rule:nonzero;stroke:none"
               d="m 503.908,158.093 -1.369,0 0,333.627 1.369,0 0,-333.627 z" />
            <path
               inkscape:connector-curvature="0"
               id="path8156"
               style="fill:#636568;fill-opacity:1;fill-rule:nonzero;stroke:none"
               d="m 503.225,490.338 -25.434,0 0,1.376 25.434,0 0,-1.376 z" />
            <path
               inkscape:connector-curvature="0"
               id="path8158"
               style="fill:#636568;fill-opacity:1;fill-rule:nonzero;stroke:none"
               d="m 503.225,456.583 -25.434,0 0,1.376 25.434,0 0,-1.376 z" />
            <path
               inkscape:connector-curvature="0"
               id="path8160"
               style="fill:#636568;fill-opacity:1;fill-rule:nonzero;stroke:none"
               d="m 503.225,424.214 -25.434,0 0,1.376 25.434,0 0,-1.376 z" />
            <path
               inkscape:connector-curvature="0"
               id="path8162"
               style="fill:#636568;fill-opacity:1;fill-rule:nonzero;stroke:none"
               d="m 503.225,390.459 -25.434,0 0,1.376 25.434,0 0,-1.376 z" />
            <path
               inkscape:connector-curvature="0"
               id="path8164"
               style="fill:#636568;fill-opacity:1;fill-rule:nonzero;stroke:none"
               d="m 503.225,357.166 -25.434,0 0,1.376 25.434,0 0,-1.376 z" />
            <path
               inkscape:connector-curvature="0"
               id="path8166"
               style="fill:#636568;fill-opacity:1;fill-rule:nonzero;stroke:none"
               d="m 503.225,323.41 -25.434,0 0,1.376 25.434,0 0,-1.376 z" />
            <path
               inkscape:connector-curvature="0"
               id="path8168"
               style="fill:#636568;fill-opacity:1;fill-rule:nonzero;stroke:none"
               d="m 503.225,289.655 -25.434,0 0,1.376 25.434,0 0,-1.376 z" />
            <path
               inkscape:connector-curvature="0"
               id="path8170"
               style="fill:#636568;fill-opacity:1;fill-rule:nonzero;stroke:none"
               d="m 503.225,256.361 -25.434,0 0,1.375 25.434,0 0,-1.375 z" />
            <path
               inkscape:connector-curvature="0"
               id="path8172"
               style="fill:#636568;fill-opacity:1;fill-rule:nonzero;stroke:none"
               d="m 503.225,223.068 -25.434,0 0,1.375 25.434,0 0,-1.375 z" />
            <path
               inkscape:connector-curvature="0"
               id="path8174"
               style="fill:#636568;fill-opacity:1;fill-rule:nonzero;stroke:none"
               d="m 503.225,190.237 -25.434,0 0,1.375 25.434,0 0,-1.375 z" />
            <path
               inkscape:connector-curvature="0"
               id="path8176"
               style="fill:#636568;fill-opacity:1;fill-rule:nonzero;stroke:none"
               d="m 503.225,157.868 -25.434,0 0,1.375 25.434,0 0,-1.375 z" />
            <path
               inkscape:connector-curvature="0"
               id="path8178"
               style="fill:#636568;fill-opacity:1;fill-rule:nonzero;stroke:none"
               d="m 503.225,473.691 -17.572,0 0,1.376 17.572,0 0,-1.376 z" />
            <path
               inkscape:connector-curvature="0"
               id="path8180"
               style="fill:#636568;fill-opacity:1;fill-rule:nonzero;stroke:none"
               d="m 503.225,440.398 -17.572,0 0,1.376 17.572,0 0,-1.376 z" />
            <path
               inkscape:connector-curvature="0"
               id="path8182"
               style="fill:#636568;fill-opacity:1;fill-rule:nonzero;stroke:none"
               d="m 503.225,407.798 -17.572,0 0,1.376 17.572,0 0,-1.376 z" />
            <path
               inkscape:connector-curvature="0"
               id="path8184"
               style="fill:#636568;fill-opacity:1;fill-rule:nonzero;stroke:none"
               d="m 503.225,374.505 -17.572,0 0,1.376 17.572,0 0,-1.376 z" />
            <path
               inkscape:connector-curvature="0"
               id="path8186"
               style="fill:#636568;fill-opacity:1;fill-rule:nonzero;stroke:none"
               d="m 503.225,341.212 -17.572,0 0,1.376 17.572,0 0,-1.376 z" />
            <path
               inkscape:connector-curvature="0"
               id="path8188"
               style="fill:#636568;fill-opacity:1;fill-rule:nonzero;stroke:none"
               d="m 503.225,307.918 -17.572,0 0,1.376 17.572,0 0,-1.376 z" />
            <path
               inkscape:connector-curvature="0"
               id="path8190"
               style="fill:#636568;fill-opacity:1;fill-rule:nonzero;stroke:none"
               d="m 503.225,273.238 -17.572,0 0,1.376 17.572,0 0,-1.376 z" />
            <path
               inkscape:connector-curvature="0"
               id="path8192"
               style="fill:#636568;fill-opacity:1;fill-rule:nonzero;stroke:none"
               d="m 503.225,239.944 -17.572,0 0,1.375 17.572,0 0,-1.375 z" />
            <path
               inkscape:connector-curvature="0"
               id="path8194"
               style="fill:#636568;fill-opacity:1;fill-rule:nonzero;stroke:none"
               d="m 503.225,207.345 -17.572,0 0,1.375 17.572,0 0,-1.375 z" />
            <path
               inkscape:connector-curvature="0"
               id="path8196"
               style="fill:#636568;fill-opacity:1;fill-rule:nonzero;stroke:none"
               d="m 503.225,172.664 -17.572,0 0,1.375 17.572,0 0,-1.375 z" />
          </g>
        </g>
      </g>
      <g
         transform="matrix(0.55150616,0,0,-0.58868968,-204.53118,344.53799)"
         id="g8198"
         style="">
        <g
           id="g8200"
           style="" />
        <g
           id="g8206"
           style="">
          <g
             style="opacity:0.69999701"
             id="g8208"
             clip-path="url(#clipPath8202)">
            <path
               inkscape:connector-curvature="0"
               id="path8210"
               style="fill:#636568;fill-opacity:1;fill-rule:nonzero;stroke:none"
               d="m 545.697,158.094 -1.369,0 0,333.625 1.369,0 0,-333.625 z" />
            <path
               inkscape:connector-curvature="0"
               id="path8212"
               style="fill:#636568;fill-opacity:1;fill-rule:nonzero;stroke:none"
               d="m 570.445,158.1 -25.434,0 0,1.375 25.434,0 0,-1.375 z" />
            <path
               inkscape:connector-curvature="0"
               id="path8214"
               style="fill:#636568;fill-opacity:1;fill-rule:nonzero;stroke:none"
               d="m 570.445,191.854 -25.434,0 0,1.375 25.434,0 0,-1.375 z" />
            <path
               inkscape:connector-curvature="0"
               id="path8216"
               style="fill:#636568;fill-opacity:1;fill-rule:nonzero;stroke:none"
               d="m 570.445,224.224 -25.434,0 0,1.375 25.434,0 0,-1.375 z" />
            <path
               inkscape:connector-curvature="0"
               id="path8218"
               style="fill:#636568;fill-opacity:1;fill-rule:nonzero;stroke:none"
               d="m 570.445,257.979 -25.434,0 0,1.375 25.434,0 0,-1.375 z" />
            <path
               inkscape:connector-curvature="0"
               id="path8220"
               style="fill:#636568;fill-opacity:1;fill-rule:nonzero;stroke:none"
               d="m 570.445,291.271 -25.434,0 0,1.377 25.434,0 0,-1.377 z" />
            <path
               inkscape:connector-curvature="0"
               id="path8222"
               style="fill:#636568;fill-opacity:1;fill-rule:nonzero;stroke:none"
               d="m 570.445,325.026 -25.434,0 0,1.376 25.434,0 0,-1.376 z" />
            <path
               inkscape:connector-curvature="0"
               id="path8224"
               style="fill:#636568;fill-opacity:1;fill-rule:nonzero;stroke:none"
               d="m 570.445,358.781 -25.434,0 0,1.376 25.434,0 0,-1.376 z" />
            <path
               inkscape:connector-curvature="0"
               id="path8226"
               style="fill:#636568;fill-opacity:1;fill-rule:nonzero;stroke:none"
               d="m 570.445,392.075 -25.434,0 0,1.376 25.434,0 0,-1.376 z" />
            <path
               inkscape:connector-curvature="0"
               id="path8228"
               style="fill:#636568;fill-opacity:1;fill-rule:nonzero;stroke:none"
               d="m 570.445,425.368 -25.434,0 0,1.376 25.434,0 0,-1.376 z" />
            <path
               inkscape:connector-curvature="0"
               id="path8230"
               style="fill:#636568;fill-opacity:1;fill-rule:nonzero;stroke:none"
               d="m 570.445,458.199 -25.434,0 0,1.376 25.434,0 0,-1.376 z" />
            <path
               inkscape:connector-curvature="0"
               id="path8232"
               style="fill:#636568;fill-opacity:1;fill-rule:nonzero;stroke:none"
               d="m 570.445,490.568 -25.434,0 0,1.376 25.434,0 0,-1.376 z" />
            <path
               inkscape:connector-curvature="0"
               id="path8234"
               style="fill:#636568;fill-opacity:1;fill-rule:nonzero;stroke:none"
               d="m 562.584,174.746 -17.572,0 0,1.375 17.572,0 0,-1.375 z" />
            <path
               inkscape:connector-curvature="0"
               id="path8236"
               style="fill:#636568;fill-opacity:1;fill-rule:nonzero;stroke:none"
               d="m 562.584,208.039 -17.572,0 0,1.375 17.572,0 0,-1.375 z" />
            <path
               inkscape:connector-curvature="0"
               id="path8238"
               style="fill:#636568;fill-opacity:1;fill-rule:nonzero;stroke:none"
               d="m 562.584,240.64 -17.572,0 0,1.375 17.572,0 0,-1.375 z" />
            <path
               inkscape:connector-curvature="0"
               id="path8240"
               style="fill:#636568;fill-opacity:1;fill-rule:nonzero;stroke:none"
               d="m 562.584,273.931 -17.572,0 0,1.377 17.572,0 0,-1.377 z" />
            <path
               inkscape:connector-curvature="0"
               id="path8242"
               style="fill:#636568;fill-opacity:1;fill-rule:nonzero;stroke:none"
               d="m 562.584,307.225 -17.572,0 0,1.376 17.572,0 0,-1.376 z" />
            <path
               inkscape:connector-curvature="0"
               id="path8244"
               style="fill:#636568;fill-opacity:1;fill-rule:nonzero;stroke:none"
               d="m 562.584,340.518 -17.572,0 0,1.376 17.572,0 0,-1.376 z" />
            <path
               inkscape:connector-curvature="0"
               id="path8246"
               style="fill:#636568;fill-opacity:1;fill-rule:nonzero;stroke:none"
               d="m 562.584,375.198 -17.572,0 0,1.376 17.572,0 0,-1.376 z" />
            <path
               inkscape:connector-curvature="0"
               id="path8248"
               style="fill:#636568;fill-opacity:1;fill-rule:nonzero;stroke:none"
               d="m 562.584,408.492 -17.572,0 0,1.376 17.572,0 0,-1.376 z" />
            <path
               inkscape:connector-curvature="0"
               id="path8250"
               style="fill:#636568;fill-opacity:1;fill-rule:nonzero;stroke:none"
               d="m 562.584,441.092 -17.572,0 0,1.376 17.572,0 0,-1.376 z" />
            <path
               inkscape:connector-curvature="0"
               id="path8252"
               style="fill:#636568;fill-opacity:1;fill-rule:nonzero;stroke:none"
               d="m 562.584,475.772 -17.572,0 0,1.376 17.572,0 0,-1.376 z" />
          </g>
        </g>
      </g>
      <text
         sodipodi:linespacing="90%"
         id="text9020"
         y="254.13841"
         x="110.43628"
         style="font-style:normal;font-variant:normal;font-weight:normal;font-stretch:normal;font-size:12.5px;line-height:90%;font-family:sans-serif;-inkscape-font-specification:'sans-serif, Normal';text-align:start;letter-spacing:0px;word-spacing:0px;writing-mode:lr;text-anchor:start;fill:#000000;fill-opacity:1;stroke:none;stroke-width:1px;stroke-linecap:butt;stroke-linejoin:miter;stroke-opacity:1;"
         xml:space="preserve"><tspan
           y="254.13841"
           x="110.43628"
           id="tspan9022"
           sodipodi:role="line">-10</tspan></text>
      <text
         sodipodi:linespacing="89.999998%"
         id="text9020-3"
         y="-0.72875977"
         x="56.001709"
         style="font-style:normal;font-variant:normal;font-weight:normal;font-stretch:normal;font-size:12.5px;line-height:89.99999762%;font-family:sans-serif;-inkscape-font-specification:'sans-serif, Normal';text-align:start;letter-spacing:0px;word-spacing:0px;writing-mode:lr-tb;text-anchor:start;fill:#000000;fill-opacity:1;stroke:none;stroke-width:1px;stroke-linecap:butt;stroke-linejoin:miter;stroke-opacity:1"
         xml:space="preserve"><tspan
           y="-0.72875977"
           x="56.001709"
           id="tspan9022-7"
           sodipodi:role="line">120</tspan></text>
      <text
         xml:space="preserve"
         style="font-style:normal;font-variant:normal;font-weight:bold;font-stretch:normal;font-size:12.5px;line-height:90%;font-family:sans-serif;-inkscape-font-specification:'sans-serif, Bold';text-align:start;letter-spacing:0px;word-spacing:0px;writing-mode:lr;text-anchor:start;fill:#000000;fill-opacity:1;stroke:none;stroke-width:1px;stroke-linecap:butt;stroke-linejoin:miter;stroke-opacity:1;"
         x="110.5144"
         y="234.85811"
         id="text9060"
         sodipodi:linespacing="90%"><tspan
           sodipodi:role="line"
           id="tspan9062"
           x="110.5144"
           y="234.85811">0</tspan></text>
      <text
         xml:space="preserve"
         style="font-style:normal;font-variant:normal;font-weight:normal;font-stretch:normal;font-size:12.5px;line-height:90%;font-family:sans-serif;-inkscape-font-specification:'sans-serif, Normal';text-align:start;letter-spacing:0px;word-spacing:0px;writing-mode:lr;text-anchor:start;fill:#000000;fill-opacity:1;stroke:none;stroke-width:1px;stroke-linecap:butt;stroke-linejoin:miter;stroke-opacity:1;"
         x="109.82593"
         y="215.4565"
         id="text9066"
         sodipodi:linespacing="90%"><tspan
           sodipodi:role="line"
           id="tspan9068"
           x="109.82593"
           y="215.4565">10</tspan></text>
      <text
         sodipodi:linespacing="90%"
         id="text9088"
         y="195.69391"
         x="110.39722"
         style="font-style:normal;font-variant:normal;font-weight:normal;font-stretch:normal;font-size:12.5px;line-height:90%;font-family:sans-serif;-inkscape-font-specification:'sans-serif, Normal';text-align:start;letter-spacing:0px;word-spacing:0px;writing-mode:lr;text-anchor:start;fill:#000000;fill-opacity:1;stroke:none;stroke-width:1px;stroke-linecap:butt;stroke-linejoin:miter;stroke-opacity:1;"
         xml:space="preserve"><tspan
           y="195.69391"
           x="110.39722"
           id="tspan9090"
           sodipodi:role="line">20</tspan></text>
      <text
         xml:space="preserve"
         style="font-style:normal;font-variant:normal;font-weight:normal;font-stretch:normal;font-size:12.5px;line-height:90%;font-family:sans-serif;-inkscape-font-specification:'sans-serif, Normal';text-align:start;letter-spacing:0px;word-spacing:0px;writing-mode:lr;text-anchor:start;fill:#000000;fill-opacity:1;stroke:none;stroke-width:1px;stroke-linecap:butt;stroke-linejoin:miter;stroke-opacity:1;"
         x="110.36792"
         y="176.2065"
         id="text9110"
         sodipodi:linespacing="90%"><tspan
           sodipodi:role="line"
           id="tspan9112"
           x="110.36792"
           y="176.2065">30</tspan></text>
      <text
         sodipodi:linespacing="90%"
         id="text9114"
         y="156.26199"
         x="110.80737"
         style="font-style:normal;font-variant:normal;font-weight:bold;font-stretch:normal;font-size:12.5px;line-height:90%;font-family:sans-serif;-inkscape-font-specification:'sans-serif, Bold';text-align:start;letter-spacing:0px;word-spacing:0px;writing-mode:lr;text-anchor:start;fill:#000000;fill-opacity:1;stroke:none;stroke-width:1px;stroke-linecap:butt;stroke-linejoin:miter;stroke-opacity:1;"
         xml:space="preserve"><tspan
           y="156.26199"
           x="110.80737"
           id="tspan9116"
           sodipodi:role="line">40</tspan></text>
      <text
         xml:space="preserve"
         style="font-style:normal;font-variant:normal;font-weight:normal;font-stretch:normal;font-size:12.5px;line-height:90%;font-family:sans-serif;-inkscape-font-specification:'sans-serif, Normal';text-align:start;letter-spacing:0px;word-spacing:0px;writing-mode:lr;text-anchor:start;fill:#000000;fill-opacity:1;stroke:none;stroke-width:1px;stroke-linecap:butt;stroke-linejoin:miter;stroke-opacity:1;"
         x="110.27026"
         y="136.60294"
         id="text9128"
         sodipodi:linespacing="90%"><tspan
           sodipodi:role="line"
           id="tspan9130"
           x="110.27026"
           y="136.60294">50</tspan></text>
      <text
         sodipodi:linespacing="90%"
         id="text9132"
         y="116.81004"
         x="110.5144"
         style="font-style:normal;font-variant:normal;font-weight:normal;font-stretch:normal;font-size:12.5px;line-height:90%;font-family:sans-serif;-inkscape-font-specification:'sans-serif, Normal';text-align:start;letter-spacing:0px;word-spacing:0px;writing-mode:lr;text-anchor:start;fill:#000000;fill-opacity:1;stroke:none;stroke-width:1px;stroke-linecap:butt;stroke-linejoin:miter;stroke-opacity:1;"
         xml:space="preserve"><tspan
           y="116.81004"
           x="110.5144"
           id="tspan9134"
           sodipodi:role="line">60</tspan></text>
      <text
         xml:space="preserve"
         style="font-style:normal;font-variant:normal;font-weight:normal;font-stretch:normal;font-size:12.5px;line-height:90%;font-family:sans-serif;-inkscape-font-specification:'sans-serif, Normal';text-align:start;letter-spacing:0px;word-spacing:0px;writing-mode:lr;text-anchor:start;fill:#000000;fill-opacity:1;stroke:none;stroke-width:1px;stroke-linecap:butt;stroke-linejoin:miter;stroke-opacity:1;"
         x="110.4314"
         y="96.810043"
         id="text9372"
         sodipodi:linespacing="90%"><tspan
           sodipodi:role="line"
           id="tspan9374"
           x="110.4314"
           y="96.810043">70</tspan></text>
      <text
         sodipodi:linespacing="90%"
         id="text9376"
         y="76.810043"
         x="110.58765"
         style="font-style:normal;font-variant:normal;font-weight:normal;font-stretch:normal;font-size:12.5px;line-height:90%;font-family:sans-serif;-inkscape-font-specification:'sans-serif, Normal';text-align:start;letter-spacing:0px;word-spacing:0px;writing-mode:lr;text-anchor:start;fill:#000000;fill-opacity:1;stroke:none;stroke-width:1px;stroke-linecap:butt;stroke-linejoin:miter;stroke-opacity:1;"
         xml:space="preserve"><tspan
           y="76.810043"
           x="110.58765"
           id="tspan9378"
           sodipodi:role="line">80</tspan></text>
      <text
         xml:space="preserve"
         style="font-style:normal;font-variant:normal;font-weight:normal;font-stretch:normal;font-size:12.5px;line-height:90%;font-family:sans-serif;-inkscape-font-specification:'sans-serif, Normal';text-align:start;letter-spacing:0px;word-spacing:0px;writing-mode:lr;text-anchor:start;fill:#000000;fill-opacity:1;stroke:none;stroke-width:1px;stroke-linecap:butt;stroke-linejoin:miter;stroke-opacity:1;"
         x="110.63159"
         y="58.810043"
         id="text9388"
         sodipodi:linespacing="90%"><tspan
           sodipodi:role="line"
           id="tspan9390"
           x="110.63159"
           y="58.810043">90</tspan></text>
      <text
         sodipodi:linespacing="90%"
         id="text9592"
         y="36.810043"
         x="110.63159"
         style="font-style:normal;font-variant:normal;font-weight:bold;font-stretch:normal;font-size:12.5px;line-height:90%;font-family:sans-serif;-inkscape-font-specification:'sans-serif, Bold';text-align:start;letter-spacing:0px;word-spacing:0px;writing-mode:lr;text-anchor:start;fill:#000000;fill-opacity:1;stroke:none;stroke-width:1px;stroke-linecap:butt;stroke-linejoin:miter;stroke-opacity:1;"
         xml:space="preserve"><tspan
           y="36.810043"
           x="110.63159"
           id="tspan9594"
           sodipodi:role="line">ºC</tspan></text>
    </g>
  </g>
</svg>
